# xmcd
#
# Track frame offsets: 
#        150
#        17847
#        35410
#        51147
#        67315
#        85530
#        105752
#        123155
#        141147
#        160327
#        175630
#        188457
#        214195
#
# Disc length: 4332 seconds
#
# Revision: 5
# Processed by: cddbd v1.5PL3 Copyright (c) Steve Scherf et al.
# Submitted via: ExactAudioCopy v0.95a3
#
DISCID=a210ea0d
DTITLE=Reba McEntire - If You See Him
DYEAR=1998
DGENRE=Country
TTITLE0=If You See Him, If You See Her (With Brooks and Dunn) 
TTITLE1=One Honest Heart
TTITLE2=I Wouldn't Know
TTITLE3=I'll Give You Something To Miss
TTITLE4=Invisible
TTITLE5=Up And Flying
TTITLE6=Forever Love
TTITLE7=Face To Face (Duet With Linda Davis)
TTITLE8=Heart Hush
TTITLE9=Lonely Alone
TTITLE10=Wrong Night
TTITLE11=All This Time
TTITLE12=DATA
EXTD=(c)1998 MCA Records Nashville\nupc 602438050826\nKatalog: UMD 805
EXTD=08 - 380 508-2\nEnhanced CD with Pictures, Videos, and Screen Sav
EXTD=er.\nwww.reba.com\n
EXTT0=with Brooks and Dunn\t\n
EXTT1=
EXTT2=\t\t\t
EXTT3=
EXTT4=
EXTT5=
EXTT6=
EXTT7=
EXTT8=
EXTT9=
EXTT10=
EXTT11=
EXTT12=
PLAYORDER=
